<?xml version="1.0" encoding="UTF-8"?>
<svg id="REGISTEREDSYMBOLS" xmlns="http://www.w3.org/2000/svg"><g  id="Rv280" opacity="1" title="Depth 2000+ Meters" regid="Rv" plantCnt="1" size="2"><polygon fill="#FF0000" stroke="black" stroke-width="1" points="-6.55651e-006,-15 -8.66026,-6.55651e-006 -6.55651e-006,15 8.66025,-6.55651e-006"/></g><g plantCnt="0"    id="Rv15" opacity="1" title="Depth 1900+ Meters" regid="Rv"  size="2"><polygon fill="#FF9966" stroke="black" stroke-width="1" points="-6.55651e-006,-15 -8.66026,-6.55651e-006 -6.55651e-006,15 8.66025,-6.55651e-006"/></g><g     id="Rv17" opacity="1" title="Depth 1800+ Meters" regid="Rv" plantCnt="1" size="2"><polygon fill="#007FFF" stroke="black" stroke-width="1" points="-6.55651e-006,-15 -8.66026,-6.55651e-006 -6.55651e-006,15 8.66025,-6.55651e-006"/></g><g     id="Rv26" opacity="1" title="Depth 1700+ Meters" regid="Rv" plantCnt="2" size="2"><polygon fill="#8A2BE2" stroke="black" stroke-width="1" points="-6.55651e-006,-15 -8.66026,-6.55651e-006 -6.55651e-006,15 8.66025,-6.55651e-006"/></g><g     id="Rv27" opacity="1" title="Depth 1600+ Meters" regid="Rv" plantCnt="4" size="2"><polygon fill="#79443B" stroke="black" stroke-width="1" points="-6.55651e-006,-15 -8.66026,-6.55651e-006 -6.55651e-006,15 8.66025,-6.55651e-006"/></g><g     id="Rv30" opacity="1" title="Depth 1500+ Meters" regid="Rv" plantCnt="6" size="2"><polygon fill="#B5A642" stroke="black" stroke-width="1" points="-6.55651e-006,-15 -8.66026,-6.55651e-006 -6.55651e-006,15 8.66025,-6.55651e-006"/></g><g     id="Rv5" size="2" title="Depth 1400+ Meters" regid="Rv" plantCnt="8"><polygon fill="#F19CBB" stroke="black" stroke-width="1" points="-6.55651e-006,-15 -8.66026,-6.55651e-006 -6.55651e-006,15 8.66025,-6.55651e-006"/></g><g     id="Rv33" opacity="1" title="Depth 1300+ Meters" regid="Rv" plantCnt="7" size="2"><polygon fill="#08E8DE" stroke="black" stroke-width="1" points="-6.55651e-006,-15 -8.66026,-6.55651e-006 -6.55651e-006,15 8.66025,-6.55651e-006"/></g><g     id="Rv62" opacity="1" title="Depth 1200+ Meters" regid="Rv" plantCnt="20" size="2"><polygon fill="#7FFF00" stroke="black" stroke-width="1" points="-6.55651e-006,-15 -8.66026,-6.55651e-006 -6.55651e-006,15 8.66025,-6.55651e-006"/></g><g     id="Rv189" opacity="1" title="Depth 1100+ Meters" regid="Rv" plantCnt="33" size="2"><polygon fill="#FAF0E6" stroke="black" stroke-width="1" points="-6.55651e-006,-15 -8.66026,-6.55651e-006 -6.55651e-006,15 8.66025,-6.55651e-006"/></g><g     id="Rv354" opacity="1" title="Depth 1000+ Meters" regid="Rv" plantCnt="29" size="2"><polygon fill="#FEFE33" stroke="black" stroke-width="1" points="-6.55651e-006,-15 -8.66026,-6.55651e-006 -6.55651e-006,15 8.66025,-6.55651e-006"/></g><g     id="Rh355" opacity="1" title="Depth 900+ Meters" regid="Rh" plantCnt="50" size="2"><polygon fill="#9ACD32" stroke="black" stroke-width="1" points="-6.55651e-006,-8.66026 -15,-6.55651e-006 -6.55651e-006,8.66025 15,-6.55651e-006"/></g><g     id="Rh354" opacity="1" title="Depth 800+ Meters" regid="Rh" plantCnt="64" size="2"><polygon fill="#FEFE33" stroke="black" stroke-width="1" points="-6.55651e-006,-8.66026 -15,-6.55651e-006 -6.55651e-006,8.66025 15,-6.55651e-006"/></g><g     id="Rh346" opacity="1" title="Depth 700+ Meters" regid="Rh" plantCnt="66" size="2"><polygon fill="#40826D" stroke="black" stroke-width="1" points="-6.55651e-006,-8.66026 -15,-6.55651e-006 -6.55651e-006,8.66025 15,-6.55651e-006"/></g><g     id="Rh339" opacity="1" title="Depth 600+ Meters" regid="Rh" plantCnt="80" size="2"><polygon fill="#AE2029" stroke="black" stroke-width="1" points="-6.55651e-006,-8.66026 -15,-6.55651e-006 -6.55651e-006,8.66025 15,-6.55651e-006"/></g><g     id="Rh320" opacity="1" title="Depth 500+ Meters" regid="Rh" plantCnt="98" size="2"><polygon fill="#D2B48C" stroke="black" stroke-width="1" points="-6.55651e-006,-8.66026 -15,-6.55651e-006 -6.55651e-006,8.66025 15,-6.55651e-006"/></g><g     id="Rh254" opacity="1" title="Depth 400+ Meters" regid="Rh" plantCnt="178" size="2"><polygon fill="#CCCCFF" stroke="black" stroke-width="1" points="-6.55651e-006,-8.66026 -15,-6.55651e-006 -6.55651e-006,8.66025 15,-6.55651e-006"/></g><g     id="Rh242" opacity="1" title="Depth 300+ Meters" regid="Rh" plantCnt="316" size="2"><polygon fill="#F984E5" stroke="black" stroke-width="1" points="-6.55651e-006,-8.66026 -15,-6.55651e-006 -6.55651e-006,8.66025 15,-6.55651e-006"/></g><g    id="Rh11" opacity="1" title="Depth 200+ Meters" regid="Rh" plantCnt="328" size="2"><polygon fill="#7FFFD4" stroke="black" stroke-width="1" points="-6.55651e-006,-8.66026 -15,-6.55651e-006 -6.55651e-006,8.66025 15,-6.55651e-006"/></g><g     id="Rh187" opacity="1" title="Depth 100+ Meters" regid="Rh" plantCnt="1102" size="2"><polygon fill="#00FF00" stroke="black" stroke-width="1" points="-6.55651e-006,-8.66026 -15,-6.55651e-006 -6.55651e-006,8.66025 15,-6.55651e-006"/></g><g     id="P4vRv4316" opacity="1" title="Managed Cave - Open to public." regid="P4vRv" plantCnt="167" size="2"><polygon fill="#E52B50" stroke="black" stroke-width="1" points="15,-5.48363e-006 -5.48363e-006,-15 -15,-5.48363e-006 -5.48363e-006,15"/><polygon fill="#003399" stroke="black" stroke-width="1" points="-5.48363e-006,-13.7784 -7.95496,-5.48363e-006 -5.48363e-006,13.7784 7.95495,-5.48363e-006"/></g></svg>
